<?xml version="1.0" encoding="UTF-8"?>
<svg viewBox="0 0 300 44" xmlns="http://www.w3.org/2000/svg">
<style>tspan { white-space:pre }
		.shp0 { fill: #000000 }</style>
<g id="Layer">
<g id="Layer">
<path id="Layer" class="shp0" d="m85.06 2.77c6.14 0 8.01 3.56 8.01 8.5v22.91c0 5-1.87 8.49-8.01 8.49s-8.01-3.55-8.01-8.49v-22.91c0-5 1.87-8.5 8.01-8.5zm-3.43 31.28c0 2.78 0.54 4.71 3.43 4.71s3.43-1.93 3.43-4.71v-22.6c0-2.77-0.54-4.76-3.43-4.76s-3.43 1.99-3.43 4.76v22.6z" fill-rule="evenodd"/>
<path id="Layer" class="shp0" d="m72.23 7.11v-3.92h-16.15v3.92h5.79v35.32h4.58v-35.32h5.78z"/>
<path id="Layer" class="shp0" d="m131.81 21.52 3.61-18.27h4.46l-5.78 25.14v14.1h-2.29-2.29v-14.1l-5.79-25.14h4.4l3.68 18.27"/>
<path id="Layer" class="shp0" d="m46.45 30.02-9.28-26.77h-4.04v39.24h4.58v-25.67l9.22 25.67h4.09v-39.24h-4.57v26.77z"/>
<path id="Layer" class="shp0" d="m27.11 42.49h-4.58l-1.26-8.37h-8.32l-1.26 8.37h-4.58l6.75-39.24h6.56l6.69 39.24zm-6.45-12.35-3.49-22.18-3.56 22.18h7.05z" fill-rule="evenodd"/>
<path id="Layer" class="shp0" d="m113.86 30.02-9.28-26.77h-4.04v39.24h4.58v-25.67l9.22 25.67h4.09v-39.24h-4.57v26.77z"/>
</g>
<g id="Layer">
<g id="Layer">
<path id="Layer" class="shp0" d="m276.57 11.27c0-5 1.86-8.5 8.01-8.5 6.14 0 8.01 3.56 8.01 8.5v22.91c0 5-1.87 8.49-8.01 8.49-6.15 0-8.01-3.55-8.01-8.49v-22.91zm4.57 22.78c0 2.78 0.55 4.71 3.44 4.71s3.43-1.93 3.43-4.71v-22.6c0-2.77-0.54-4.76-3.43-4.76s-3.44 1.99-3.44 4.76v22.6z" fill-rule="evenodd"/>
<path id="Layer" class="shp0" d="m190.96 11.27c0-5 1.87-8.5 8.02-8.5 6.14 0 8.01 3.56 8.01 8.5v22.91c0 5-1.87 8.49-8.01 8.49-6.15 0-8.02-3.55-8.02-8.49v-22.91zm4.58 22.78c0 2.78 0.54 4.71 3.44 4.71 2.89 0 3.43-1.93 3.43-4.71v-22.6c0-2.77-0.54-4.76-3.43-4.76-2.9 0-3.44 1.99-3.44 4.76v22.6z" fill-rule="evenodd"/>
<path id="Layer" class="shp0" d="m271.93 7.11v-3.86h-16.21v3.86h5.85v35.38h4.51v-35.38h5.85z"/>
<path id="Layer" class="shp0" d="m230.24 42.55h-4.88l-2.95-13.32-4.28 0.91v12.35h-4.58v-39.24h8.5c4.34 0 7.05 0.73 7.05 5.79v12c0 0.84 0 1.62-0.06 2.35-0.24 2.29-0.91 3.67-2.29 4.4l3.49 14.76zm-5.72-20.97v-10.97c0-2.96-1.51-3.44-3.86-3.44h-2.53v18.81l3.01-0.73c2.05-0.54 3.38-0.66 3.38-3.67z" fill-rule="evenodd"/>
<path id="a" class="shp0" d="m254.1 42.49h-4.58l-1.27-8.37h-8.31l-1.27 8.37h-4.57l6.74-39.24h6.63l6.63 39.24zm-6.39-12.35-3.55-22.18-3.56 22.18h7.11z" fill-rule="evenodd"/>
</g>
<path class="shp0" d="m172.05 26.88 8.19-23.63h4.04v39.24h-4.52v-25.67l-6.33 17.3h-1.38-1.39l-6.26-17.3v25.67h-4.58v-39.24h4.1l8.13 23.63z"/>
</g>
</g>
</svg>
